<svg id="Ńëîé_2" width="100%" height="100%" data-name="Ńëîé 2" xmlns="http://www.w3.org/2000/svg" viewBox="0 0 115.87 103.07" preserveAspectRatio="xMidYMid meet"><title>1</title><path d="M274.81,267.39h0l-9.41-24.67V210.88a10,10,0,0,0-10-10H179.76a10,10,0,0,0-9.95,10v31.83l-9.3,24.37a5.45,5.45,0,0,0-.88,3v12.31a5.47,5.47,0,0,0,5.47,5.47h6l-2.45,10.33a4.65,4.65,0,0,0,4.62,5.85h88.94a4.65,4.65,0,0,0,4.62-5.85l-2.45-10.33H270a5.47,5.47,0,0,0,5.47-5.47V270A5.39,5.39,0,0,0,274.81,267.39Zm-69.68-21.54-4.92,18.73H167.15l7.14-18.73Zm5.48,0h4.45v18.73H205.7Zm9.76-5.3v-5a15.49,15.49,0,0,0,3.83-1.18v6.2Zm-2.66-10.09a10.36,10.36,0,1,1,10.36-10.35A10.37,10.37,0,0,1,217.71,230.46Zm-6.49,3.89a15.57,15.57,0,0,0,3.84,1.18v5h-3.84Zm9.15,11.5h4.33l4.73,18.73h-9.06Zm14.53,18.73-4.73-18.73h30.75l7.15,18.73Zm25.2-53.7v29.67H229.51V230.38A15.62,15.62,0,0,0,225,206.23h30.49A4.66,4.66,0,0,1,260.1,210.88Zm-80.34-4.65h30.7a15.63,15.63,0,0,0-4.55,24.15v10.17H175.12V210.88A4.65,4.65,0,0,1,179.76,206.23ZM174,298.69l4.71-19.84h6.61l-1.48,8.83a3.21,3.21,0,0,0,3.17,3.75h61.21a3.2,3.2,0,0,0,3.17-3.75l-1.48-8.83h6.9l4.72,19.84Zm70.53-19.84,1.22,7.27H189.43l1.22-7.27Zm25.71,3.5a.16.16,0,0,1-.16.16h-6.94l-.87-3.66h2.62v-5.3H170.59v5.3h2.62l-.87,3.66H165.1a.16.16,0,0,1-.16-.16V270a.16.16,0,0,1,.16-.15H270a.16.16,0,0,1,.16.15Z" transform="translate(-159.63 -200.92)"/><path d="M248.72,223.93a8,8,0,1,0-8-8A8,8,0,0,0,248.72,223.93Zm0-10.66A2.68,2.68,0,1,1,246,216,2.69,2.69,0,0,1,248.72,213.27Z" transform="translate(-159.63 -200.92)"/><rect x="88.5" y="33.06" width="5.92" height="5.31"/><rect x="20.74" y="31.3" width="5.92" height="5.31"/></svg>