<svg fill="#6764cb" width="100%" height="100%" id="Ńëîé_2" data-name="Ńëîé 2" xmlns="http://www.w3.org/2000/svg" viewBox="0 0 148.66 93.16" preserveAspectRatio="xMidYMid meet"><title>10</title><path d="M647.6,735.74H619a4.2,4.2,0,0,0-4.19,4.19v1.59h-8.9l-49.21,5.12v4.52h-10a4.24,4.24,0,0,0-4.23-4.19H518.22a4.24,4.24,0,0,0-4.23,4.19h-6.62a4.24,4.24,0,0,0-4.24,4.24v31.29a4.24,4.24,0,0,0,4.24,4.24h6.86a4.23,4.23,0,0,0,4,2.85h1.5L523.5,825l0,.17A4.59,4.59,0,0,0,528,828.9h64a4.24,4.24,0,0,0,4.24-4.24v-4.34a4.24,4.24,0,0,0-4.24-4.24H537.8l-1.73-22.3h6.38a4.23,4.23,0,0,0,4.23-4.18h10v4.52l49.51,5.1h8.6v1.6A4.2,4.2,0,0,0,619,805H647.6a4.2,4.2,0,0,0,4.19-4.19v-60.9A4.2,4.2,0,0,0,647.6,735.74Zm-138.88,21H514v28.59h-5.26Zm10.85-4.19H541.1V788.2H519.57Zm12.75,65.09a4.37,4.37,0,0,0,4.34,4h54v1.64H528.92l-3.57-29.53h5.11ZM546.69,784V756.75h10V784Zm60.68,9.63V754h-5.58v39.2l-39.55-4.07V751.67L606,747.11h8.76v46.53Zm38.84,5.79H620.35v-58.1h25.86Z" transform="translate(-503.13 -735.74)"/></svg>