<svg fill="#6764cb" width="100%" height="100%" id="Ńëîé_2" data-name="Ńëîé 2" xmlns="http://www.w3.org/2000/svg" viewBox="0 0 120.09 96.13" preserveAspectRatio="xMidYMid meet"><title>2</title><path d="M448.81,216.77H436.93v-4.41H425.21v4.41h-9.65L409,204.39H383.17l-6.6,12.38h-6.43v-4.41H358.42v4.41H345.31c-4.58,0-8.3,4.38-8.3,9v66.5a8.31,8.31,0,0,0,8.3,8.3h103.5a8.31,8.31,0,0,0,8.3-8.3V225.06A8.31,8.31,0,0,0,448.81,216.77Zm-83.06,44.75a29.65,29.65,0,1,1,29.65,29.64A29.68,29.68,0,0,1,365.75,261.52Zm3,22.62H343V238.23h26.38a34.86,34.86,0,0,0-.58,45.91Zm61.57-22.62a34.81,34.81,0,0,0-8.91-23.29h29.69v45.91H422A34.76,34.76,0,0,0,430.35,261.52Zm-85-38.78h34.84l6.6-12.37h18.63l6.6,12.37h36.83a2.32,2.32,0,0,1,2.32,2.32v7.86H415.47a34.85,34.85,0,0,0-40.14,0H343v-7.19C343,224.44,344,222.74,345.31,222.74ZM343,292.23v-2.78h31.43a35.21,35.21,0,0,0,9.59,5.11H345.31A2.34,2.34,0,0,1,343,292.23Zm105.83,2.33h-42a35.21,35.21,0,0,0,9.59-5.11h34.74v2.78A2.33,2.33,0,0,1,448.81,294.56Z" transform="translate(-337.01 -204.39)"/><path d="M421.34,261.52a25.94,25.94,0,1,0-25.94,25.94A26,26,0,0,0,421.34,261.52Zm-45.91,0a20,20,0,1,1,20,20A20,20,0,0,1,375.43,261.52Z" transform="translate(-337.01 -204.39)"/><path d="M395.4,244.87a16.67,16.67,0,0,0-16.65,16.65h6a10.69,10.69,0,0,1,10.68-10.68Z" transform="translate(-337.01 -204.39)"/><rect x="53.19" y="9.73" width="11.72" height="5.97"/><rect x="94.95" y="21.19" width="14.27" height="5.31"/></svg>