<svg id="Ńëîé_2" width="100%" height="100%" data-name="Ńëîé 2" xmlns="http://www.w3.org/2000/svg" viewBox="0 0 128.67 120.4" preserveAspectRatio="xMidYMid meet"><title>3</title><path d="M578.15,219.78V205.07a4,4,0,0,0-4-4H558.63v-4.85a4,4,0,0,0-4-4h-18a4,4,0,0,0-4,4v4.85H517.11a4,4,0,0,0-4,4v94.78a4,4,0,0,0,4,4h15.54v4.85a4,4,0,0,0,4,4h18a4,4,0,0,0,4-4v-4.85h15.54a4,4,0,0,0,4-4v-17h35.78V257.93a4,4,0,0,1,4-4h14.6a9.3,9.3,0,0,0,9.29-9.29V219.78Zm-36.54,0v-1.42h31.23v1.42Zm-23.17,66.78v-68.2H536.3v68.2Zm19.51-89h15.38v3.52H538Zm34.89,8.82v6.66h-54.4v-6.66Zm-19.51,101H538v-3.52h15.38Zm-34.89-8.82v-6.66h54.4v6.66Zm118-53.87a4,4,0,0,1-4,4h-14.6a9.3,9.3,0,0,0-9.29,9.29v19.58h-64v5.31h28.25v3.74H541.61V225.09h94.88Z" transform="translate(-513.13 -192.26)"/><rect x="31.35" y="73.52" width="5.31" height="9.07"/><rect x="40.71" y="73.52" width="5.31" height="9.07"/><rect x="50.08" y="73.52" width="5.31" height="9.07"/><rect x="59.44" y="73.52" width="5.31" height="9.07"/><rect x="68.8" y="73.52" width="5.31" height="9.07"/><rect x="78.16" y="73.52" width="5.31" height="9.07"/><rect x="87.53" y="73.52" width="5.31" height="9.07"/><rect x="31.35" y="36.15" width="5.31" height="9.07"/><rect x="40.71" y="36.15" width="5.31" height="9.07"/><rect x="50.08" y="36.15" width="5.31" height="9.07"/><rect x="59.44" y="36.15" width="5.31" height="9.07"/><rect x="68.8" y="36.15" width="5.31" height="9.07"/><rect x="78.16" y="36.15" width="5.31" height="9.07"/><rect x="87.53" y="36.15" width="5.31" height="9.07"/><rect x="96.89" y="36.15" width="5.31" height="9.07"/><rect x="106.25" y="36.15" width="5.31" height="9.07"/><rect x="115.62" y="36.15" width="5.31" height="9.07"/></svg>