<svg fill="#6764cb" width="100%" height="100%" id="Ńëîé_2" data-name="Ńëîé 2" xmlns="http://www.w3.org/2000/svg" viewBox="0 0 120.09 96.13" preserveAspectRatio="xMidYMid meet"><title>4</title><rect x="85.42" y="40.87" width="5.59" height="5.59"/><rect x="91.74" y="34" width="5.59" height="5.59"/><rect x="91.74" y="48.49" width="5.59" height="5.59"/><rect x="98.23" y="40.87" width="5.59" height="5.59"/><rect x="84.96" y="80.21" width="5.59" height="5.59"/><rect x="96.36" y="80.21" width="5.59" height="5.59"/><path d="M810,216.77H798.1v-4.41H786.37v4.41h-9.65l-6.6-12.38H744.33l-6.6,12.38H731.3v-4.41H719.58v4.41H706.47c-4.57,0-8.29,4.38-8.29,9v66.5a8.3,8.3,0,0,0,8.29,8.3H810a8.31,8.31,0,0,0,8.3-8.3V225.06A8.3,8.3,0,0,0,810,216.77Zm2.33,75.46a2.34,2.34,0,0,1-2.33,2.33H706.47a2.33,2.33,0,0,1-2.32-2.33v-66.5c0-1.29,1-3,2.32-3h34.84l6.6-12.37h18.63l6.6,12.37H810a2.33,2.33,0,0,1,2.33,2.32Z" transform="translate(-698.18 -204.39)"/><rect x="53.19" y="9.73" width="11.72" height="5.97"/><path d="M775.63,235.41H711.47a3.55,3.55,0,0,0-3.54,3.54v44.59a3.55,3.55,0,0,0,3.54,3.54h64.16a3.54,3.54,0,0,0,3.54-3.54V239A3.54,3.54,0,0,0,775.63,235.41Zm-2,46.08H713.52V241h60.07Z" transform="translate(-698.18 -204.39)"/><rect x="714.49" y="245.64" width="14.12" height="5.59" transform="translate(-662.91 377.76) rotate(-44.93)"/><rect x="714.25" y="252.89" width="28.75" height="5.59" transform="translate(-669.58 377.22) rotate(-44.3)"/></svg>