<svg id="Ńëîé_2" width="100%" height="100%" data-name="Ńëîé 2" xmlns="http://www.w3.org/2000/svg" viewBox="0 0 130.26 115.01" preserveAspectRatio="xMidYMid meet"><title>5</title><path d="M281.89,400c-8.72-8.86-16.55-13.36-21.84-15.61a22,22,0,0,0,6.41-6.41l.37-.65v-4.94a3.49,3.49,0,0,0-3.49-3.49H235.43a3.5,3.5,0,0,0-3.49,3.49v7.1H212.39a3.5,3.5,0,0,0-3.5,3.49v6.87h-41a3.49,3.49,0,0,0-3.49,3.49v.76h-8.5a3.49,3.49,0,0,0-3.49,3.49V455.2a3.5,3.5,0,0,0,3.49,3.5h8.5v.75a3.49,3.49,0,0,0,3.49,3.49h41v6.87a3.5,3.5,0,0,0,3.5,3.49h19.55v7.11a3.5,3.5,0,0,0,3.49,3.49h27.91a3.49,3.49,0,0,0,3.49-3.49v-4.94l-.37-.65a21.85,21.85,0,0,0-6.41-6.41c5.29-2.26,13.12-6.75,21.84-15.61l.8-.82V400.8ZM158,453.11V399.68h6.41v53.43Zm12,4.25V395.43h38.88v61.93Zm44.47,10.36V385.07h17.46v3.38H220.77V394h11.17v12H220.77v5.59h11.17v12H220.77v5.59h11.17v12H220.77v5.58h11.17v12H220.77v5.59h11.17v3.38Zm62.63-18c-12.34,12.21-22.42,14.88-24.35,15.29a2.94,2.94,0,0,0-.42,5.72,19.91,19.91,0,0,1,8.91,6.38v1.24H237.53V374.48h23.72v1.23a19.88,19.88,0,0,1-8.91,6.39,2.94,2.94,0,0,0,.42,5.71c1.93.42,12,3.09,24.35,15.29Z" transform="translate(-152.44 -368.89)"/><rect x="23.86" y="38.3" width="5.59" height="11.64"/><rect x="23.86" y="59.02" width="5.59" height="5.82"/><rect x="23.86" y="70.89" width="5.59" height="5.82"/></svg>