<svg fill="#6764cb" width="100%" height="100%" id="Ńëîé_2" data-name="Ńëîé 2" xmlns="http://www.w3.org/2000/svg" viewBox="0 0 142.38 101.62" preserveAspectRatio="xMidYMid meet"><title>6</title><path d="M447.94,375.58H372.45c-3.67,0-6.87,2-9.57,5.48h-16.7c-11.58,0-20.31,19.49-20.31,45.33s8.73,45.33,20.31,45.33h16.7c2.7,3.46,5.9,5.48,9.57,5.48h75.49c13.19,0,20.31-26.17,20.31-50.81S461.13,375.58,447.94,375.58Zm-38.65,5.59a32.92,32.92,0,0,0-3.66,6.21H388c2.21-4,4.67-6.21,7-6.21Zm-26.85,67.59h18.19a85,85,0,0,0,2.55,10.29h-18A74.73,74.73,0,0,1,382.44,448.76Zm-2.1-22.37c0-1.88.05-3.72.12-5.52h18.3c-.08,1.84-.12,3.69-.12,5.52,0,.95,0,1.89,0,2.84h-18.3C380.35,428.29,380.34,427.35,380.34,426.39Zm18.58,8.43c.18,2.82.46,5.62.82,8.36H381.49q-.57-4-.87-8.36Zm.2-19.54H380.83q.41-4.39,1.08-8.36h18.23C399.71,409.64,399.37,412.44,399.12,415.28Zm2.05-13.95H383A68.79,68.79,0,0,1,385.5,393h17.94A79.76,79.76,0,0,0,401.17,401.33Zm-55,64.81c-7,0-14.72-16.33-14.72-39.75s7.76-39.74,14.72-39.74h13.28c-4.81,9.91-7.33,25.1-7.33,39.74s2.52,29.83,7.33,39.75Zm11.54-39.75c0-25.88,7.78-45.22,14.73-45.22H385.4c-7,9-10.65,27.51-10.65,45.22s3.68,36.22,10.65,45.23H372.45C365.5,471.62,357.72,452.28,357.72,426.39Zm29.89,38.24h17.66a33.7,33.7,0,0,0,4,7H395.06C392.55,471.62,389.93,469.08,387.61,464.63Zm16.62-38.24c0-25.88,7.77-45.22,14.72-45.22h19.33c-7,9-10.66,27.51-10.66,45.22s3.68,36.22,10.66,45.23H419C412,471.62,404.23,452.28,404.23,426.39Zm43.71,45.23c-6.95,0-14.73-19.34-14.73-45.23s7.78-45.22,14.73-45.22,14.72,19.34,14.72,45.22S454.89,471.62,447.94,471.62Z" transform="translate(-325.87 -375.58)"/><path d="M447.94,387.38c-9.62,0-12.18,24.52-12.18,39s2.56,39,12.18,39,12.17-24.53,12.17-39S457.55,387.38,447.94,387.38Zm0,72.42c-.63-.31-2.51-2.52-4.17-9.46a119.72,119.72,0,0,1,0-47.9c1.66-6.93,3.54-9.15,4.17-9.45.62.3,2.5,2.52,4.17,9.45a119.72,119.72,0,0,1,0,47.9C450.44,457.28,448.56,459.49,447.94,459.8Z" transform="translate(-325.87 -375.58)"/></svg>