<svg id="Ńëîé_2" width="100%" height="100%" data-name="Ńëîé 2" xmlns="http://www.w3.org/2000/svg" viewBox="0 0 80.56 130.65" preserveAspectRatio="xMidYMid meet"><title>7</title><path d="M614.12,361.07a4,4,0,0,0-1.54.32L582.77,374a5.06,5.06,0,0,0-2.65,2.82l-15,22.67h-12l-13,7.87a4.18,4.18,0,0,0-2.87,3.95V445.1a4.2,4.2,0,0,0,4.18,4.19h0l1.93,0v42.45h5.58V449.26h5v42.46h5.59V449.17h.42l20.21,35.21.53-.31a3.56,3.56,0,0,0,2.71,1.27h0a4,4,0,0,0,1.55-.32l29.81-12.57a5.09,5.09,0,0,0,3-4.51V364.82A3.65,3.65,0,0,0,614.12,361.07Zm-59.47,44h6.76l-1.36,2h-8.79Zm-11.88,38.66v-6.24h9.06v-5.59h-9.06v-8.58h8.65v-5.59h-8.65v-5h16v30.93l-12.64.08h-2.8v0Zm21.58-33,15.43-23.3V472.5l-15.43-26.88Zm47.81,56.77-26.8,11.3V378.92l26.8-11.29Z" transform="translate(-537.18 -361.07)"/></svg>