<svg fill="#6764cb" width="100%" height="100%" id="Ńëîé_2" data-name="Ńëîé 2" xmlns="http://www.w3.org/2000/svg" viewBox="0 0 125.49 133.28" preserveAspectRatio="xMidYMid meet"><title>8</title><path d="M639.3,658.89,621.71,622a5.36,5.36,0,0,0-4.63-2.92h-1.94l-2.38-4.82a3.63,3.63,0,0,0,2.76-1.65,3.72,3.72,0,0,0,.16-3.58L604.9,586.23l.07,0V575.9h-6.83v-8.23h-8.87v-5.51h8.87V535.5H558.35v16.27H544.89l-4.22,6.09-.83-.56a4.19,4.19,0,0,0-5.82,1.12l-15.18,22.4a4.19,4.19,0,0,0,1.11,5.82l6.11,4.14a4.15,4.15,0,0,0,2.35.72,4.19,4.19,0,0,0,3.47-1.84l15.18-22.4a4.19,4.19,0,0,0-1.11-5.82l-.66-.44,2.53-3.64h10.53v4.8h7.94v5.51h-8.87v8.23h-6.84v10L539.67,609a3.59,3.59,0,0,0,3.21,5.25l-2.37,4.8h-2.66a5.38,5.38,0,0,0-4.64,2.92l-17.59,36.9a10.65,10.65,0,0,0-.9,4v1.6a4.27,4.27,0,0,0,4.27,4.27h5.92a5.41,5.41,0,0,0,4.63-2.88l20.51-41.46a3.75,3.75,0,0,0-.1-3.65,3.71,3.71,0,0,0-3.21-1.71l2.37-4.8h2.49a5.2,5.2,0,0,0,4.52-2.8l10-20.32h2.14l1.27,20.52c.12,2,1.94,3.42,4.32,3.42H575v4h-2.56a4.2,4.2,0,0,0-4.22,4.36l1.38,41.17a4.35,4.35,0,0,0,4.32,4.17h7.76A4.36,4.36,0,0,0,586,664.6l1.38-41.17a4.22,4.22,0,0,0-4.22-4.36h-2.57v-4h1.09c2.37,0,4.19-1.44,4.31-3.42l1.27-20.52h1.94l10,20.32a5.22,5.22,0,0,0,4.52,2.8h2.79l2.37,4.8h-.7a3.62,3.62,0,0,0-3.32,5.35l20.5,41.47a5.43,5.43,0,0,0,4.64,2.88h5.92a4.27,4.27,0,0,0,4.27-4.27v-1.6A10.47,10.47,0,0,0,639.3,658.89ZM528,585.37l-3.8-2.57,13.62-20.09,3.79,2.57Zm52.39,77.82h-5.31l-1.29-38.54h7.9Zm-8.36-122.1h11.61V547H572.07Zm-8.13,15.49V541.09h2.54v11.46h22.79V541.09h3.28v15.49H563.94Zm7.94,5.58h11.8v5.51h-11.8ZM563,573.26h29.54v2.64H563Zm-6.84,8.22h43.21V583l-4.26,2.55H560.43L556.17,583Zm-31.52,81.71H520.3v-.29a5.31,5.31,0,0,1,.37-1.61l17.46-36.64h5.57Zm26.62-54.5H546l9.3-19.68,3.58,2.14h1Zm29.24.81h-5.46l-1.14-18.35h7.73Zm14.9-18.35h1.25l3.42-2,9.26,19.58h-5.26Zm39.21,72h-4.34l-19.06-38.54h5.57l17.47,36.64a5.29,5.29,0,0,1,.36,1.61Z" transform="translate(-514.72 -535.5)"/></svg>