<svg id="Ńëîé_2" width="100%" height="100%" data-name="Ńëîé 2" xmlns="http://www.w3.org/2000/svg" viewBox="0 0 140.21 86.65" preserveAspectRatio="xMidYMid meet"><title>9</title><rect x="17.6" y="39.29" width="5.59" height="28.09"/><path d="M828.33,578.52H814.51L804.77,584H788.23v6h-6v-2.68H752v1.68h-2.58v-.59L760,582.11V568.72l-14.41-2.4a96.77,96.77,0,0,0-37.74-7.51,69.49,69.49,0,0,0-8.61.45l-1.83.25-4.26,15.2-5.07,4.39v16.68h2.12v32.86h-2.12v16.82h53.53l7.73-9.27V634H752v2.24h30.31V634h6v6h16.54l9.74,5.43h13.82V633L822,628.37l5-3.3V598.91l-5-3.3,6.33-4.64Zm-40.1,17v4h-6v-4Zm-6,13.67v-4h6v4Zm6,5.58v4h-6v-4ZM693.7,634.23h2.13v-44H693.7v-6.92l27.47,1,9.14,4.5v51.14H693.7Zm50.09-.06-4.76,5.7H735.9V585.26l-13.34-6.57-2.69-.1L720,574l-14.3-.49-.15,4.61-7.46-.26,3.7-13.21c1.37-.1,3.45-.22,6.07-.22a91.11,91.11,0,0,1,35.83,7.18l.32.14,10.42,1.74v5.44l-10.67,6.24Zm5.59-5.72V594.53H752v33.92Zm27.3,2.25H757.55V592.85h19.13Zm5.59-2.25v-4h6v4Zm40.47-40.31-10.53,7.72,9.22,6.06v20.14l-9.22,6.06,10.53,7.72v4H816l-9.73-5.43H793.81v-44.9h12.42l9.73-5.43h6.78Z" transform="translate(-688.12 -558.81)"/><rect x="72.65" y="39.66" width="5.59" height="6.37"/><rect x="72.65" y="49.99" width="5.59" height="6.37"/></svg>