<svg id="Warstwa_1" data-name="Warstwa 1" xmlns="http://www.w3.org/2000/svg" viewBox="0 0 196 70"><defs><style>.cls-1{fill:#6764cb;}</style></defs><title>logos</title><path d="M489.43,464.59a35,35,0,1,0,34.9,35A35,35,0,0,0,489.43,464.59Zm0,66.88a31.88,31.88,0,1,1,31.78-31.88A31.87,31.87,0,0,1,489.43,531.47Z" transform="translate(-454.53 -464.59)"/><path d="M489.43,470.9A28.7,28.7,0,1,0,518,499.59,28.68,28.68,0,0,0,489.43,470.9Zm25.39,26.42L501.89,504l1.3-25.9A25.62,25.62,0,0,1,514.82,497.32Zm-35.26,7.2.52-10.88,9.88-5.07,9.28,6.05-.55,11-9.71,5Zm20.6-28.11-.74,14.6-21.69-14.12a25.28,25.28,0,0,1,22.43-.48Zm-25.38,2.28,12.16,7.92-23,11.78A25.57,25.57,0,0,1,474.78,478.69ZM464,501.87l12.84-6.59-1.23,25.81A25.59,25.59,0,0,1,464,501.87Zm14.65,20.91.7-14.64,21.73,14.16a25.37,25.37,0,0,1-22.43.48Zm25.39-2.28L492,512.62l22.9-11.82A25.59,25.59,0,0,1,504.08,520.5Z" transform="translate(-454.53 -464.59)"/><path d="M541.7,503.9a10,10,0,0,1-3.43-1.79l1.24-2.66a10.48,10.48,0,0,0,3.07,1.63,11,11,0,0,0,3.48.52,6,6,0,0,0,3.23-.73,2.32,2.32,0,0,0,1.15-2.07,1.93,1.93,0,0,0-1.06-1.74,13.21,13.21,0,0,0-3.49-1.15,14.31,14.31,0,0,1-5.5-2.12,4.45,4.45,0,0,1-1.72-3.79,5.42,5.42,0,0,1,1-3.17,6.35,6.35,0,0,1,2.72-2.18,9.87,9.87,0,0,1,4.08-.79,12.72,12.72,0,0,1,4,.63,8.56,8.56,0,0,1,3.12,1.77l-1.21,2.66a9.29,9.29,0,0,0-5.93-2.15,5.21,5.21,0,0,0-3.08.81,2.55,2.55,0,0,0-1.13,2.19,2,2,0,0,0,1,1.81,11.68,11.68,0,0,0,3.42,1.16,25.1,25.1,0,0,1,4.1,1.29,6.09,6.09,0,0,1,2.42,1.78,4.31,4.31,0,0,1,.85,2.74,5.27,5.27,0,0,1-1,3.15,6.11,6.11,0,0,1-2.76,2.08,11.32,11.32,0,0,1-4.27.74A14.81,14.81,0,0,1,541.7,503.9Z" transform="translate(-454.53 -464.59)"/><path d="M570.79,490v14.29h-3.48V502a4.54,4.54,0,0,1-1.86,1.85,5.58,5.58,0,0,1-2.76.67,5.9,5.9,0,0,1-5.54-3.48,9.91,9.91,0,0,1,0-7.8,6.25,6.25,0,0,1,2.24-2.66,5.84,5.84,0,0,1,3.28-.95,5.58,5.58,0,0,1,2.76.67,4.54,4.54,0,0,1,1.86,1.85V490Zm-4.44,10.53a5.41,5.41,0,0,0,1-3.43,5.5,5.5,0,0,0-1-3.48,3.63,3.63,0,0,0-5.46,0,5.6,5.6,0,0,0-1,3.5,5.26,5.26,0,0,0,1,3.4,3.38,3.38,0,0,0,2.76,1.19A3.25,3.25,0,0,0,566.35,500.5Z" transform="translate(-454.53 -464.59)"/><path d="M587.89,495.49v8.77h-3.53v-8.6a3.87,3.87,0,0,0-.65-2.48,2.45,2.45,0,0,0-2-.78,3.44,3.44,0,0,0-2.6,1,3.78,3.78,0,0,0-1,2.73v8.09h-3.5V494a32.73,32.73,0,0,0-.22-4h3.3l.25,2.35a5.2,5.2,0,0,1,2-2,5.73,5.73,0,0,1,2.84-.71Q587.9,489.6,587.89,495.49Z" transform="translate(-454.53 -464.59)"/><path d="M596.13,492.63V499q0,2.52,2.34,2.52a4.93,4.93,0,0,0,1.41-.23v2.8a6.5,6.5,0,0,1-2.25.34,4.91,4.91,0,0,1-3.73-1.36,5.4,5.4,0,0,1-1.3-3.9v-6.57h-2.74V490h2.74v-3.48l3.53-1.19V490h3.78v2.66Z" transform="translate(-454.53 -464.59)"/><path d="M616,490v14.29H612.5V502a4.54,4.54,0,0,1-1.86,1.85,5.6,5.6,0,0,1-2.77.67,5.9,5.9,0,0,1-5.53-3.48,9,9,0,0,1-.79-3.88,9.21,9.21,0,0,1,.8-3.92,6.34,6.34,0,0,1,2.25-2.66,5.83,5.83,0,0,1,3.27-.95,5.6,5.6,0,0,1,2.77.67,4.54,4.54,0,0,1,1.86,1.85V490Zm-4.43,10.53a5.41,5.41,0,0,0,1-3.43,5.5,5.5,0,0,0-1-3.48,3.29,3.29,0,0,0-2.74-1.22,3.25,3.25,0,0,0-2.72,1.26,5.6,5.6,0,0,0-1,3.5,5.26,5.26,0,0,0,1,3.4,3.37,3.37,0,0,0,2.75,1.19A3.25,3.25,0,0,0,611.54,500.5Z" transform="translate(-454.53 -464.59)"/><path d="M633.07,495.49v8.77h-3.52v-8.6a3.87,3.87,0,0,0-.65-2.48,2.47,2.47,0,0,0-2-.78,3.42,3.42,0,0,0-2.59,1,3.78,3.78,0,0,0-1,2.73v8.09h-3.5V494a32.59,32.59,0,0,0-.23-4h3.31l.25,2.35a5.13,5.13,0,0,1,2-2,5.7,5.7,0,0,1,2.84-.71Q633.07,489.6,633.07,495.49Z" transform="translate(-454.53 -464.59)"/><path d="M650.46,490v14.29H647V502a4.66,4.66,0,0,1-1.86,1.85,5.62,5.62,0,0,1-2.77.67,6,6,0,0,1-3.3-.91,5.91,5.91,0,0,1-2.23-2.57,9,9,0,0,1-.79-3.88,9.21,9.21,0,0,1,.8-3.92,6.34,6.34,0,0,1,2.25-2.66,5.83,5.83,0,0,1,3.27-.95,5.62,5.62,0,0,1,2.77.67,4.66,4.66,0,0,1,1.86,1.85V490ZM646,500.5a5.41,5.41,0,0,0,1-3.43,5.5,5.5,0,0,0-1-3.48,3.29,3.29,0,0,0-2.74-1.22,3.24,3.24,0,0,0-2.72,1.26,5.6,5.6,0,0,0-1,3.5,5.26,5.26,0,0,0,1,3.4,3.36,3.36,0,0,0,2.75,1.19A3.25,3.25,0,0,0,646,500.5Z" transform="translate(-454.53 -464.59)"/><path class="cls-1" d="M540.37,508.85h2.48a2.23,2.23,0,0,1,1.5.47,1.6,1.6,0,0,1,.54,1.28,1.64,1.64,0,0,1-.54,1.29,2.22,2.22,0,0,1-1.5.46h-1.77v2.75h-.71Zm2.42,2.91a1.56,1.56,0,0,0,1-.3,1.23,1.23,0,0,0,0-1.72,1.61,1.61,0,0,0-1-.29h-1.71v2.31Z" transform="translate(-454.53 -464.59)"/><path class="cls-1" d="M554,508.85h.71v6.25H554v-2.87h-3.74v2.87h-.71v-6.25h.71v2.78H554Z" transform="translate(-454.53 -464.59)"/><path class="cls-1" d="M560.86,514.78a2.51,2.51,0,0,1-1-1.1,3.94,3.94,0,0,1-.34-1.7,3.88,3.88,0,0,1,.34-1.7,2.47,2.47,0,0,1,1-1.11,3.12,3.12,0,0,1,3,0,2.47,2.47,0,0,1,1,1.11,3.86,3.86,0,0,1,.34,1.69,3.91,3.91,0,0,1-.34,1.7,2.55,2.55,0,0,1-1,1.11,2.79,2.79,0,0,1-1.5.39A2.85,2.85,0,0,1,560.86,514.78Zm3-.9a3.59,3.59,0,0,0,0-3.82,2.13,2.13,0,0,0-3.09,0,2.91,2.91,0,0,0-.55,1.9,2.94,2.94,0,0,0,.55,1.91,2.1,2.1,0,0,0,3.09,0Z" transform="translate(-454.53 -464.59)"/><path class="cls-1" d="M571.14,515.1v-5.63H569v-.62H574v.62h-2.17v5.63Z" transform="translate(-454.53 -464.59)"/><path class="cls-1" d="M579.12,514.78a2.51,2.51,0,0,1-1-1.1,3.94,3.94,0,0,1-.35-1.7,4,4,0,0,1,.34-1.7,2.59,2.59,0,0,1,1-1.11,2.86,2.86,0,0,1,1.52-.39,2.83,2.83,0,0,1,1.51.39,2.53,2.53,0,0,1,1,1.11,3.86,3.86,0,0,1,.34,1.69,3.91,3.91,0,0,1-.34,1.7,2.55,2.55,0,0,1-1,1.11,2.79,2.79,0,0,1-1.5.39A2.85,2.85,0,0,1,579.12,514.78Zm3-.9a3,3,0,0,0,.55-1.91,2.92,2.92,0,0,0-.55-1.91,2.13,2.13,0,0,0-3.09,0,2.91,2.91,0,0,0-.55,1.9,2.94,2.94,0,0,0,.55,1.91,2.1,2.1,0,0,0,3.09,0Z" transform="translate(-454.53 -464.59)"/><path class="cls-1" d="M593.2,511.85v2.89a3.73,3.73,0,0,1-1,.31,6.13,6.13,0,0,1-1.21.12,3.24,3.24,0,0,1-1.6-.38,2.5,2.5,0,0,1-1-1.1,4.38,4.38,0,0,1,0-3.43,2.5,2.5,0,0,1,1-1.09,3,3,0,0,1,1.56-.39,3.55,3.55,0,0,1,1.2.2,2.54,2.54,0,0,1,.94.59l-.28.56a3,3,0,0,0-.89-.56,2.5,2.5,0,0,0-1-.17,2,2,0,0,0-1.63.66,2.9,2.9,0,0,0-.56,1.91,2.82,2.82,0,0,0,.58,1.93,2.07,2.07,0,0,0,1.68.67,4.66,4.66,0,0,0,1.49-.25v-1.9H591v-.57Z" transform="translate(-454.53 -464.59)"/><path class="cls-1" d="M603.06,515.1h-.76l-.77-2.08a1,1,0,0,0-.39-.52,1.66,1.66,0,0,0-.71-.13h-1.55v2.73h-.71v-6.25h2.47a2.37,2.37,0,0,1,1.55.45,1.58,1.58,0,0,1,.54,1.29,1.66,1.66,0,0,1-.32,1,1.69,1.69,0,0,1-.93.59.85.85,0,0,1,.47.24,1.38,1.38,0,0,1,.32.54Zm-2.48-3.32c1,0,1.44-.4,1.44-1.18a1,1,0,0,0-.35-.86,1.73,1.73,0,0,0-1.09-.29h-1.7v2.33Z" transform="translate(-454.53 -464.59)"/><path class="cls-1" d="M612.44,515.1l-.69-1.6H608.5l-.69,1.6h-.74l2.73-6.25h.63l2.74,6.25Zm-3.69-2.2h2.75l-1.37-3.21Z" transform="translate(-454.53 -464.59)"/><path class="cls-1" d="M617.6,508.85h2.48a2.23,2.23,0,0,1,1.5.47,1.6,1.6,0,0,1,.54,1.28,1.64,1.64,0,0,1-.54,1.29,2.22,2.22,0,0,1-1.5.46h-1.76v2.75h-.72Zm2.42,2.91a1.56,1.56,0,0,0,1-.3,1.23,1.23,0,0,0,0-1.72,1.61,1.61,0,0,0-1-.29h-1.7v2.31Z" transform="translate(-454.53 -464.59)"/><path class="cls-1" d="M631.24,508.85H632v6.25h-.71v-2.87H627.5v2.87h-.71v-6.25h.71v2.78h3.74Z" transform="translate(-454.53 -464.59)"/><path class="cls-1" d="M637,515.1v-6.25h3.94v.6H637.7v2.18h3.06v.6H637.7v2.27h3.23v.6Z" transform="translate(-454.53 -464.59)"/><path class="cls-1" d="M650.53,515.1h-.76L649,513a1,1,0,0,0-.39-.52,1.66,1.66,0,0,0-.71-.13h-1.55v2.73h-.71v-6.25h2.47a2.37,2.37,0,0,1,1.55.45,1.58,1.58,0,0,1,.54,1.29,1.66,1.66,0,0,1-.32,1,1.69,1.69,0,0,1-.93.59.85.85,0,0,1,.47.24,1.51,1.51,0,0,1,.32.54Zm-2.48-3.32c1,0,1.44-.4,1.44-1.18a1,1,0,0,0-.35-.86,1.73,1.73,0,0,0-1.09-.29h-1.7v2.33Z" transform="translate(-454.53 -464.59)"/></svg>